<svg width="20" height="20" viewBox="0 0 14 14" fill="none" xmlns="http://www.w3.org/2000/svg">
<circle cx="6.99983" cy="3.70588" r="3.20588" stroke="white"/>
<path d="M13.5 11.6604C13.5 12.2619 13.3355 12.6143 13.0998 12.8456C12.8489 13.0917 12.4511 13.2663 11.8618 13.3715C11.2756 13.4762 10.5595 13.5024 9.72633 13.4997C9.34727 13.4985 8.95061 13.4914 8.53565 13.484C8.49713 13.4833 8.45845 13.4826 8.41961 13.4819C7.96391 13.4738 7.48814 13.466 7 13.466C6.51186 13.466 6.03609 13.4738 5.58039 13.4819C5.54155 13.4826 5.50287 13.4833 5.46435 13.484C5.04939 13.4914 4.65272 13.4985 4.27367 13.4997C3.44048 13.5024 2.7244 13.4762 2.13816 13.3715C1.54893 13.2663 1.15111 13.0917 0.900227 12.8456C0.664469 12.6143 0.5 12.2619 0.5 11.6604C0.5 10.4599 1.17056 9.32868 2.34363 8.47866C3.51613 7.62905 5.16079 7.08813 7 7.08813C8.83921 7.08813 10.4839 7.62905 11.6564 8.47866C12.8294 9.32868 13.5 10.4599 13.5 11.6604Z" stroke="white"/>
</svg>
